<svg width="1520" height="40" viewBox="0 0 1520 40" fill="none" xmlns="http://www.w3.org/2000/svg">
<line y1="-0.5" x2="1520" y2="-0.5" transform="matrix(-1 8.74228e-08 8.74228e-08 1 1520 20)" stroke="black"/>
<path d="M288 0C288 0 286.896 10.2999 282.598 14.5982C278.3 18.8965 268 20 268 20C268 20 278.3 21.1035 282.598 25.4018C286.896 29.7001 288 40 288 40C288 40 289.104 29.7001 293.402 25.4018C297.7 21.1035 308 20 308 20C308 20 297.7 18.8965 293.402 14.5982C289.104 10.2999 288 0 288 0Z" fill="#101010"/>
</svg>
