<?xml version="1.0" encoding="utf-8"?>
<!-- Generator: Adobe Illustrator 27.5.0, SVG Export Plug-In . SVG Version: 6.00 Build 0)  -->
<svg version="1.1" id="Layer_1" xmlns="http://www.w3.org/2000/svg" xmlns:xlink="http://www.w3.org/1999/xlink" x="0px" y="0px"
	 viewBox="0 0 226 65" style="enable-background:new 0 0 226 65;" xml:space="preserve">
<style type="text/css">
	.st0{fill:#FFFFFF;filter:url(#Adobe_OpacityMaskFilter);}
	.st1{mask:url(#mask0_179_90_00000143614692587133306710000002610553562703144633_);}
	.st2{fill:#FFFFFF;filter:url(#Adobe_OpacityMaskFilter_00000017503016882110439650000002882828369255451042_);}
	.st3{mask:url(#mask1_179_90_00000025443450781043320440000011649924540302425260_);}
	.st4{fill:#FFFFFF;filter:url(#Adobe_OpacityMaskFilter_00000052106608820426451830000008508458289237665958_);}
	.st5{mask:url(#mask2_179_90_00000088844402040434414570000000638957589230500784_);}
	.st6{fill:#FFFFFF;filter:url(#Adobe_OpacityMaskFilter_00000132780497321098768550000016236883637720370573_);}
	.st7{mask:url(#mask3_179_90_00000167397087360373692100000004326123439251922091_);}
	.st8{fill:#FFFFFF;filter:url(#Adobe_OpacityMaskFilter_00000061441526307643458050000004350967296850982071_);}
	.st9{mask:url(#mask4_179_90_00000142897868981007411190000007771465876524837306_);}
	.st10{fill:#FFFFFF;filter:url(#Adobe_OpacityMaskFilter_00000153685291271243962070000004296853172553672624_);}
	.st11{mask:url(#mask5_179_90_00000078747169096151231470000010634771490646044580_);}
</style>
<defs>
	<filter id="Adobe_OpacityMaskFilter" filterUnits="userSpaceOnUse" x="-9.7" y="-10.3" width="84.4" height="85.9">
		<feColorMatrix  type="matrix" values="1 0 0 0 0  0 1 0 0 0  0 0 1 0 0  0 0 0 1 0"/>
	</filter>
</defs>
<mask maskUnits="userSpaceOnUse" x="-9.7" y="-10.3" width="84.4" height="85.9" id="mask0_179_90_00000143614692587133306710000002610553562703144633_">
	<path class="st0" d="M64,0.6H0.9v64.1H64V0.6z"/>
</mask>
<g class="st1">
	<defs>
		
			<filter id="Adobe_OpacityMaskFilter_00000129898744457531985840000001065162763427719354_" filterUnits="userSpaceOnUse" x="-9.7" y="-10.3" width="84.4" height="85.9">
			<feColorMatrix  type="matrix" values="1 0 0 0 0  0 1 0 0 0  0 0 1 0 0  0 0 0 1 0"/>
		</filter>
	</defs>
	
		<mask maskUnits="userSpaceOnUse" x="-9.7" y="-10.3" width="84.4" height="85.9" id="mask1_179_90_00000025443450781043320440000011649924540302425260_">
		<path style="fill:#FFFFFF;filter:url(#Adobe_OpacityMaskFilter_00000129898744457531985840000001065162763427719354_);" d="
			M45.2-10.3L-9.8,19.9l29.6,55.9l55.1-30.2L45.2-10.3z"/>
	</mask>
	<g class="st3">
		<defs>
			
				<filter id="Adobe_OpacityMaskFilter_00000055696397886306797360000011648960691635793548_" filterUnits="userSpaceOnUse" x="-9.7" y="-10.3" width="84.4" height="85.9">
				<feColorMatrix  type="matrix" values="1 0 0 0 0  0 1 0 0 0  0 0 1 0 0  0 0 0 1 0"/>
			</filter>
		</defs>
		
			<mask maskUnits="userSpaceOnUse" x="-9.7" y="-10.3" width="84.4" height="85.9" id="mask2_179_90_00000088844402040434414570000000638957589230500784_">
			<path style="fill:#FFFFFF;filter:url(#Adobe_OpacityMaskFilter_00000055696397886306797360000011648960691635793548_);" d="
				M5,47.7c-4-7.5-4.8-16-2.4-24.1C5,15.5,10.3,8.8,17.7,4.8c7.3-4,15.8-4.9,23.7-2.5c8,2.4,14.6,7.9,18.5,15.3
				c4,7.5,4.8,16,2.4,24.1c-2.4,8.1-7.7,14.8-15.1,18.8c-7.3,4-15.8,4.9-23.7,2.5C15.5,60.6,9,55.2,5,47.7L5,47.7z M58.3,18.5
				c-3.7-7-9.9-12.1-17.4-14.4c-7.5-2.3-15.4-1.5-22.3,2.3C11.7,10.2,6.6,16.5,4.4,24.1C2.1,31.8,3,39.8,6.7,46.8
				c3.7,7,9.9,12.1,17.4,14.4c7.5,2.3,15.4,1.5,22.3-2.3c6.9-3.8,11.9-10.1,14.2-17.7C62.8,33.6,62,25.5,58.3,18.5z"/>
		</mask>
		<g class="st5">
			<path d="M45.1-10.3l29.6,55.8L19.8,75.6L-9.7,19.8L45.1-10.3z"/>
		</g>
	</g>
</g>
<defs>
	
		<filter id="Adobe_OpacityMaskFilter_00000013901331425823228640000012434072613085869999_" filterUnits="userSpaceOnUse" x="16.5" y="28.7" width="31.8" height="22.6">
		<feColorMatrix  type="matrix" values="1 0 0 0 0  0 1 0 0 0  0 0 1 0 0  0 0 0 1 0"/>
	</filter>
</defs>
<mask maskUnits="userSpaceOnUse" x="16.5" y="28.7" width="31.8" height="22.6" id="mask3_179_90_00000167397087360373692100000004326123439251922091_">
	<path style="fill:#FFFFFF;filter:url(#Adobe_OpacityMaskFilter_00000013901331425823228640000012434072613085869999_);" d="
		M48.3,28.4H16.4v22.9h31.9V28.4z"/>
</mask>
<g class="st7">
	<path d="M16.5,51.3l31.8,0L32.4,28.7L16.5,51.3z"/>
</g>
<defs>
	
		<filter id="Adobe_OpacityMaskFilter_00000036971831775403423610000000239924033757156499_" filterUnits="userSpaceOnUse" x="16.4" y="21.3" width="31.9" height="22.9">
		<feColorMatrix  type="matrix" values="1 0 0 0 0  0 1 0 0 0  0 0 1 0 0  0 0 0 1 0"/>
	</filter>
</defs>
<mask maskUnits="userSpaceOnUse" x="16.4" y="21.3" width="31.9" height="22.9" id="mask4_179_90_00000142897868981007411190000007771465876524837306_">
	<path style="fill:#FFFFFF;filter:url(#Adobe_OpacityMaskFilter_00000036971831775403423610000000239924033757156499_);" d="
		M48.3,21H16.4v23.4h31.9V21z"/>
</mask>
<g class="st9">
	<path d="M16.9,43.7l15.5-21.9l15.4,21.9L16.9,43.7 M16.4,43.7c0,0.1,0,0.2,0.1,0.2c0.1,0.2,0.3,0.3,0.5,0.3l30.9,0
		c0.2,0,0.4-0.1,0.5-0.3c0-0.1,0.1-0.2,0.1-0.2c0-0.1,0-0.2-0.1-0.3L32.8,21.5c-0.1-0.1-0.3-0.2-0.4-0.2c-0.2,0-0.3,0.1-0.4,0.2
		L16.5,43.4C16.5,43.5,16.4,43.6,16.4,43.7L16.4,43.7z"/>
</g>
<defs>
	
		<filter id="Adobe_OpacityMaskFilter_00000180342487577334065010000010660901861257975426_" filterUnits="userSpaceOnUse" x="16.5" y="14" width="31.9" height="22.9">
		<feColorMatrix  type="matrix" values="1 0 0 0 0  0 1 0 0 0  0 0 1 0 0  0 0 0 1 0"/>
	</filter>
</defs>
<mask maskUnits="userSpaceOnUse" x="16.5" y="14" width="31.9" height="22.9" id="mask5_179_90_00000078747169096151231470000010634771490646044580_">
	<path style="fill:#FFFFFF;filter:url(#Adobe_OpacityMaskFilter_00000180342487577334065010000010660901861257975426_);" d="
		M48.3,14H16.4v23.4h31.9V14z"/>
</mask>
<g class="st11">
	<path d="M17,36.4l15.5-21.9l15.4,21.9L17,36.4 M16.5,36.4c0,0.1,0,0.2,0.1,0.2c0.1,0.2,0.3,0.3,0.5,0.3l30.9,0
		c0.2,0,0.4-0.1,0.5-0.3c0-0.1,0.1-0.2,0.1-0.2c0-0.1,0-0.2-0.1-0.3L32.8,14.3c-0.1-0.1-0.3-0.2-0.4-0.2c-0.2,0-0.3,0.1-0.4,0.2
		L16.6,36.1C16.5,36.2,16.5,36.3,16.5,36.4L16.5,36.4z"/>
</g>
<path d="M86,41.7c4.2,0,7.6-2.5,8.7-6.4H93c-1,3-3.7,4.8-7,4.8c-4.3,0-7.4-3.2-7.4-7.8c0-4.6,3.1-7.8,7.4-7.8c3.2,0,5.9,1.7,6.9,4.6
	h1.6C93.3,25.4,90,23,86,23c-5.2,0-9,3.9-9,9.3C77,37.8,80.8,41.7,86,41.7z"/>
<path d="M105.2,41.3h1.5v-18h-1.5V41.3z"/>
<path d="M118.7,41.3h1.5v-6.8h4.6l4.8,6.8h1.8l-4.8-6.9c2.8-0.5,4.5-2.5,4.5-5.5c0-3.4-2.3-5.6-5.9-5.6h-6.5V41.3z M120.2,33.1v-8.2
	h4.9c2.8,0,4.5,1.6,4.5,4.1s-1.7,4.1-4.5,4.1H120.2z"/>
<path d="M149.9,41.7c4.2,0,7.6-2.5,8.7-6.4h-1.6c-1,3-3.7,4.8-7,4.8c-4.3,0-7.4-3.2-7.4-7.8c0-4.6,3.1-7.8,7.4-7.8
	c3.2,0,5.9,1.7,6.9,4.6h1.6c-1.2-3.8-4.5-6.2-8.5-6.2c-5.2,0-9,3.9-9,9.3C140.9,37.8,144.7,41.7,149.9,41.7z"/>
<path d="M169.1,41.3h10.5v-1.5h-9V23.3h-1.5L169.1,41.3L169.1,41.3z"/>
<path d="M189.6,41.3h10.7v-1.5h-9.1v-7h8.2v-1.4h-8.2v-6.6h8.9v-1.5h-10.4V41.3L189.6,41.3z"/>
<path d="M211.2,41.3h5.6c5.6,0,9.2-3.6,9.2-9s-3.6-9-9.2-9h-5.6V41.3z M212.7,39.8v-15h4c4.7,0,7.7,2.9,7.7,7.5s-2.9,7.5-7.6,7.5
	H212.7L212.7,39.8z"/>
</svg>
