<svg width="149" height="126" viewBox="0 0 149 126" fill="none" xmlns="http://www.w3.org/2000/svg">
<mask id="mask0_82_3844" style="mask-type:luminance" maskUnits="userSpaceOnUse" x="24" y="0" width="101" height="102">
<path d="M124.293 0H24.6455V101.352H124.293V0Z" fill="white"/>
</mask>
<g mask="url(#mask0_82_3844)">
<mask id="mask1_82_3844" style="mask-type:luminance" maskUnits="userSpaceOnUse" x="7" y="-18" width="135" height="137">
<path d="M94.6129 -17.3117L7.60693 30.417L54.4397 118.734L141.446 71.0057L94.6129 -17.3117Z" fill="white"/>
</mask>
<g mask="url(#mask1_82_3844)">
<mask id="mask2_82_3844" style="mask-type:luminance" maskUnits="userSpaceOnUse" x="25" y="0" width="99" height="101">
<path d="M31.0993 74.464C24.8539 62.6907 23.4809 49.132 27.264 36.3098C31.024 23.4818 39.494 12.9223 51.0694 6.57019C62.6447 0.218039 75.9755 -1.17849 88.5821 2.67522C101.194 6.49359 111.576 15.1144 117.822 26.8876C124.067 38.6609 125.44 52.2255 121.651 65.0418C117.874 77.8757 109.427 88.4352 97.8458 94.7814C86.2705 101.134 72.9397 102.53 60.3331 98.6823C47.7207 94.858 37.3388 86.2431 31.0935 74.4698L31.0993 74.464ZM115.226 28.3077C109.352 17.2357 99.5839 9.15112 87.7362 5.54489C75.8886 1.93866 63.3573 3.24091 52.4772 9.21004C41.597 15.1792 33.6368 25.1199 30.0912 37.1701C26.5514 49.2203 27.826 61.9659 33.6947 73.038C39.5693 84.11 49.3429 92.1946 61.1848 95.8008C73.0324 99.4012 85.5637 98.1048 96.4496 92.1357C107.336 86.1606 115.29 76.2258 118.83 64.1756C122.375 52.1254 121.095 39.3798 115.226 28.3077Z" fill="white"/>
</mask>
<g mask="url(#mask2_82_3844)">
<path d="M94.439 -17.2239L141.181 70.9166L54.522 118.463L7.78027 30.323L94.439 -17.2239Z" fill="black"/>
</g>
</g>
</g>
<mask id="mask3_82_3844" style="mask-type:luminance" maskUnits="userSpaceOnUse" x="49" y="43" width="51" height="38">
<path d="M99.538 43.9935H49.1348V80.1324H99.538V43.9935Z" fill="white"/>
</mask>
<g mask="url(#mask3_82_3844)">
<path d="M49.1924 80.0971L99.4565 80.1383L74.3766 44.4531L49.1924 80.0971Z" fill="black"/>
</g>
<mask id="mask4_82_3844" style="mask-type:luminance" maskUnits="userSpaceOnUse" x="49" y="32" width="51" height="38">
<path d="M99.538 32.2085H49.1348V69.137H99.538V32.2085Z" fill="white"/>
</mask>
<g mask="url(#mask4_82_3844)">
<path d="M49.9342 68.1L74.3769 33.4931L98.6978 68.1177L49.9284 68.1M49.1289 68.1C49.1289 68.2178 49.1463 68.3416 49.21 68.4653C49.3491 68.7305 49.6271 68.9132 49.9284 68.9132L98.6978 68.9367C98.9991 68.9367 99.2772 68.7717 99.4162 68.4889C99.4742 68.3651 99.4973 68.2414 99.4973 68.1177C99.4973 67.9527 99.4394 67.7936 99.3351 67.6522L75.0141 33.0217C74.8519 32.8214 74.6144 32.6741 74.3769 32.6741C74.1161 32.6741 73.8786 32.7978 73.7396 33.0217L49.2969 67.605C49.1984 67.7464 49.1405 67.9114 49.1405 68.0941L49.1289 68.1Z" fill="black"/>
</g>
<mask id="mask5_82_3844" style="mask-type:luminance" maskUnits="userSpaceOnUse" x="49" y="21" width="51" height="38">
<path d="M99.538 21.2131H49.1348V58.1416H99.538V21.2131Z" fill="white"/>
</mask>
<g mask="url(#mask5_82_3844)">
<path d="M49.9752 56.6095L74.4179 22.0263L98.7388 56.6567L49.9694 56.6154M49.1699 56.6154C49.1699 56.7392 49.1873 56.8629 49.251 56.9867C49.3901 57.2518 49.6682 57.4345 49.9694 57.4345L98.7388 57.4757C99.0401 57.4757 99.3182 57.3108 99.4572 57.0279C99.5152 56.9042 99.5383 56.7863 99.5383 56.6626C99.5383 56.4976 99.4804 56.3385 99.3819 56.1912L75.0551 21.5667C74.8929 21.3604 74.6554 21.219 74.4179 21.219C74.1572 21.219 73.9196 21.3427 73.7806 21.5667L49.3379 56.1323C49.2394 56.2737 49.1757 56.4563 49.1757 56.6213L49.1699 56.6154Z" fill="black"/>
</g>
<path d="M8.96829 126C13.1338 126 16.5461 123.508 17.6295 119.63H16.0131C15.0283 122.612 12.2995 124.433 8.99146 124.433C4.66954 124.433 1.56424 121.274 1.56424 116.672C1.56424 112.07 4.66954 108.912 8.99146 108.912C12.2242 108.912 14.8487 110.656 15.8625 113.508H17.4789C16.3144 109.731 13.0063 107.344 8.96829 107.344C3.76576 107.344 0 111.198 0 116.672C0 122.146 3.75996 126 8.96829 126Z" fill="black"/>
<path d="M28.2139 125.664H29.7549V107.68H28.2139V125.664Z" fill="black"/>
<path d="M41.6724 125.664H43.2134V118.905H47.7845L52.5351 125.664H54.3774L49.5747 118.782C52.3555 118.293 54.0994 116.26 54.0994 113.284C54.0994 109.866 51.7704 107.68 48.2132 107.68H41.6724V125.664ZM43.2134 117.42V109.177H48.0626C50.8666 109.177 52.5351 110.744 52.5351 113.284C52.5351 115.824 50.8666 117.42 48.0626 117.42H43.2134Z" fill="black"/>
<path d="M72.8936 126C77.0591 126 80.4714 123.508 81.5548 119.63H79.9384C78.9536 122.612 76.2248 124.433 72.9168 124.433C68.5948 124.433 65.4895 121.274 65.4895 116.672C65.4895 112.07 68.5948 108.912 72.9168 108.912C76.1495 108.912 78.774 110.656 79.7878 113.508H81.4042C80.2397 109.731 76.9316 107.344 72.8936 107.344C67.6911 107.344 63.9253 111.198 63.9253 116.672C63.9253 122.146 67.6853 126 72.8936 126Z" fill="black"/>
<path d="M92.1396 125.664H102.649V124.173H93.6865V107.68H92.1454V125.664H92.1396Z" fill="black"/>
<path d="M112.567 125.664H123.251V124.203H114.108V117.214H122.318V115.776H114.108V109.147H122.972V107.686H112.567V125.67V125.664Z" fill="black"/>
<path d="M134.165 125.664H139.75C145.381 125.664 148.944 122.093 148.944 116.672C148.944 111.251 145.381 107.68 139.75 107.68H134.165V125.664ZM135.706 124.173V109.171H139.698C144.425 109.171 147.38 112.099 147.38 116.672C147.38 121.245 144.448 124.173 139.75 124.173H135.712H135.706Z" fill="black"/>
</svg>
