<svg width="193" height="51" viewBox="0 0 193 51" fill="none" xmlns="http://www.w3.org/2000/svg">
<mask id="mask0_82_3970" style="mask-type:luminance" maskUnits="userSpaceOnUse" x="0" y="0" width="50" height="51">
<path d="M49.692 0H0V50.5417H49.692V0Z" fill="white"/>
</mask>
<g mask="url(#mask0_82_3970)">
<mask id="mask1_82_3970" style="mask-type:luminance" maskUnits="userSpaceOnUse" x="-9" y="-9" width="68" height="69">
<path d="M34.8913 -8.63322L-8.49658 15.168L14.8578 59.2098L58.2457 35.4086L34.8913 -8.63322Z" fill="white"/>
</mask>
<g mask="url(#mask1_82_3970)">
<mask id="mask2_82_3970" style="mask-type:luminance" maskUnits="userSpaceOnUse" x="0" y="0" width="50" height="51">
<path d="M3.21854 37.1335C0.104126 31.2625 -0.580584 24.501 1.30598 18.1069C3.18099 11.7099 7.40481 6.44412 13.1772 3.27645C18.9495 0.108773 25.5973 -0.587646 31.8839 1.33412C38.1734 3.23824 43.3506 7.53723 46.4651 13.4083C49.5795 19.2794 50.2642 26.0437 48.3747 32.4349C46.4911 38.8349 42.2788 44.1006 36.5035 47.2654C30.7312 50.433 24.0834 51.1295 17.7968 49.2106C11.5073 47.3036 6.33007 43.0075 3.21566 37.1365L3.21854 37.1335ZM45.1708 14.1165C42.2412 8.59508 37.3703 4.5635 31.4621 2.76515C25.554 0.966806 19.3049 1.61621 13.8792 4.59288C8.45354 7.56955 4.48396 12.5268 2.71585 18.5359C0.950623 24.5451 1.58622 30.901 4.51285 36.4224C7.44237 41.9438 12.3162 45.9754 18.2215 47.7737C24.1296 49.5691 30.3787 48.9227 35.8073 45.946C41.2358 42.9664 45.2025 38.0121 46.9678 32.0029C48.7359 25.9938 48.0974 19.6379 45.1708 14.1165Z" fill="white"/>
</mask>
<g mask="url(#mask2_82_3970)">
<path d="M34.8041 -8.58911L58.1131 35.3646L14.8984 59.0751L-8.41064 15.1214L34.8041 -8.58911Z" fill="#8C52FF"/>
</g>
</g>
</g>
<mask id="mask3_82_3970" style="mask-type:luminance" maskUnits="userSpaceOnUse" x="12" y="21" width="26" height="19">
<path d="M37.3473 21.9385H12.2124V39.9601H37.3473V21.9385Z" fill="white"/>
</mask>
<g mask="url(#mask3_82_3970)">
<path d="M12.2412 39.9425L37.3068 39.9631L24.8 22.1677L12.2412 39.9425Z" fill="#8C52FF"/>
</g>
<mask id="mask4_82_3970" style="mask-type:luminance" maskUnits="userSpaceOnUse" x="12" y="16" width="26" height="19">
<path d="M37.3473 16.0618H12.2124V34.4772H37.3473V16.0618Z" fill="white"/>
</mask>
<g mask="url(#mask4_82_3970)">
<path d="M12.6106 33.9598L24.7996 16.7022L36.9279 33.9686L12.6077 33.9598M12.209 33.9598C12.209 34.0186 12.2177 34.0803 12.2494 34.142C12.3188 34.2742 12.4574 34.3653 12.6077 34.3653L36.9279 34.3771C37.0781 34.3771 37.2168 34.2948 37.2861 34.1537C37.315 34.092 37.3266 34.0303 37.3266 33.9686C37.3266 33.8863 37.2977 33.807 37.2457 33.7365L25.1174 16.4671C25.0365 16.3672 24.918 16.2937 24.7996 16.2937C24.6695 16.2937 24.5511 16.3554 24.4818 16.4671L12.2928 33.713C12.2437 33.7835 12.2148 33.8658 12.2148 33.9569L12.209 33.9598Z" fill="#8C52FF"/>
</g>
<mask id="mask5_82_3970" style="mask-type:luminance" maskUnits="userSpaceOnUse" x="12" y="10" width="26" height="19">
<path d="M37.3473 10.5786H12.2124V28.994H37.3473V10.5786Z" fill="white"/>
</mask>
<g mask="url(#mask5_82_3970)">
<path d="M12.6311 28.2298L24.8201 10.9839L36.9484 28.2533L12.6282 28.2327M12.2295 28.2327C12.2295 28.2944 12.2382 28.3561 12.2699 28.4178C12.3393 28.5501 12.478 28.6411 12.6282 28.6411L36.9484 28.6617C37.0986 28.6617 37.2373 28.5794 37.3066 28.4384C37.3355 28.3767 37.3471 28.3179 37.3471 28.2562C37.3471 28.1739 37.3182 28.0946 37.2691 28.0211L25.1379 10.7547C25.057 10.6518 24.9385 10.5813 24.8201 10.5813C24.6901 10.5813 24.5716 10.643 24.5023 10.7547L12.3133 27.9917C12.2642 28.0623 12.2324 28.1534 12.2324 28.2356L12.2295 28.2327Z" fill="#8C52FF"/>
</g>
<path d="M71.4695 32.6459C75.0598 32.6459 78.0009 30.4975 78.9347 27.1557H77.5415C76.6926 29.7256 74.3407 31.2949 71.4895 31.2949C67.7644 31.2949 65.088 28.5727 65.088 24.6061C65.088 20.6396 67.7644 17.9174 71.4895 17.9174C74.2758 17.9174 76.5378 19.4207 77.4117 21.8788H78.8049C77.8012 18.6233 74.9499 16.5664 71.4695 16.5664C66.9855 16.5664 63.7397 19.8879 63.7397 24.6061C63.7397 29.3243 66.9805 32.6459 71.4695 32.6459Z" fill="white"/>
<path d="M88.0576 32.3562H89.3859V16.8557H88.0576V32.3562Z" fill="white"/>
<path d="M99.6572 32.3562H100.985V26.5308H104.925L109.02 32.3562H110.608L106.468 26.4242C108.865 26.0026 110.368 24.2504 110.368 21.6856C110.368 18.7399 108.361 16.8557 105.295 16.8557H99.6572V32.3562ZM100.985 25.251V18.1457H105.165C107.582 18.1457 109.02 19.4967 109.02 21.6856C109.02 23.8746 107.582 25.251 105.165 25.251H100.985Z" fill="white"/>
<path d="M126.567 32.6459C130.157 32.6459 133.098 30.4975 134.032 27.1557H132.639C131.79 29.7256 129.438 31.2949 126.587 31.2949C122.862 31.2949 120.185 28.5727 120.185 24.6061C120.185 20.6396 122.862 17.9174 126.587 17.9174C129.373 17.9174 131.635 19.4207 132.509 21.8788H133.902C132.898 18.6233 130.047 16.5664 126.567 16.5664C122.083 16.5664 118.837 19.8879 118.837 24.6061C118.837 29.3243 122.078 32.6459 126.567 32.6459Z" fill="white"/>
<path d="M143.155 32.3562H152.213V31.0712H144.488V16.8557H143.16V32.3562H143.155Z" fill="white"/>
<path d="M160.762 32.356H169.97V31.0964H162.09V25.073H169.166V23.8338H162.09V18.1201H169.73V16.8606H160.762V32.3611V32.356Z" fill="white"/>
<path d="M179.377 32.3562H184.191C189.044 32.3562 192.115 29.2784 192.115 24.6059C192.115 19.9335 189.044 16.8557 184.191 16.8557H179.377V32.3562ZM180.705 31.0712V18.1406H184.146C188.22 18.1406 190.767 20.6648 190.767 24.6059C190.767 28.5471 188.24 31.0712 184.191 31.0712H180.71H180.705Z" fill="white"/>
</svg>
