<svg width="402" height="338" viewBox="0 0 402 338" fill="none" xmlns="http://www.w3.org/2000/svg">
<path d="M64.4163 91.7766C64.4163 91.7766 83.2282 127.092 78.8119 150.153C74.3956 173.214 43.8671 199.08 43.8671 199.08C43.8671 199.08 79.1822 180.268 102.243 184.685C125.305 189.101 151.171 219.63 151.171 219.63C151.171 219.63 132.359 184.314 136.775 161.253C141.192 138.192 171.72 112.326 171.72 112.326C171.72 112.326 136.405 131.138 113.344 126.721C90.2825 122.305 64.4163 91.7766 64.4163 91.7766Z" fill="#FF9747"/>
<path d="M262.999 -4.10887e-06C262.999 -4.10887e-06 260.406 24.2048 250.305 34.3058C240.204 44.4068 215.999 47 215.999 47C215.999 47 240.204 49.5932 250.305 59.6942C260.406 69.7952 262.999 94 262.999 94C262.999 94 265.592 69.7952 275.693 59.6942C285.794 49.5932 309.999 47 309.999 47C309.999 47 285.794 44.4068 275.693 34.3058C265.592 24.2048 262.999 -4.10887e-06 262.999 -4.10887e-06Z" fill="#FFC047"/>
<path d="M332.174 157.825C332.174 157.825 319.471 192.478 300.902 203.628C282.334 214.777 245.776 209.703 245.776 209.703C245.776 209.703 280.43 222.407 291.579 240.975C302.728 259.543 297.654 296.102 297.654 296.102C297.654 296.102 310.358 261.448 328.926 250.299C347.494 239.149 384.053 244.223 384.053 244.223C384.053 244.223 349.399 231.52 338.25 212.951C327.1 194.383 332.174 157.825 332.174 157.825Z" fill="#47FF97" fill-opacity="0.8"/>
<path d="M202.515 293.804C202.515 293.804 198.906 303.651 193.63 306.819C188.353 309.987 177.965 308.545 177.965 308.545C177.965 308.545 187.812 312.155 190.98 317.431C194.148 322.708 192.707 333.096 192.707 333.096C192.707 333.096 196.316 323.249 201.592 320.081C206.869 316.912 217.257 318.354 217.257 318.354C217.257 318.354 207.41 314.745 204.242 309.468C201.074 304.192 202.515 293.804 202.515 293.804Z" fill="#8C52FF"/>
</svg>
