<svg width="47" height="45" viewBox="0 0 47 45" fill="none" xmlns="http://www.w3.org/2000/svg">
<path d="M46.982 21.6199C46.7575 25.7408 42.6642 29.5044 40.7677 33.7554C38.8714 38.0062 39.1228 42.726 37.2309 44.3434C35.3236 45.9271 31.2822 44.384 28.0167 42.4871C24.7757 40.5994 22.3199 38.3331 19.6365 35.0285C16.9531 31.7238 14.0357 27.3223 14.7575 23.6682C15.4884 19.9896 19.8277 16.9909 24.6337 14.6157C29.4489 12.2158 34.74 10.415 39.1709 11.7396C43.6019 13.0643 47.2218 17.5329 46.982 21.6199Z" fill="#8C52FF"/>
<path d="M13.2002 29.8022C13.2002 32.0381 15.0158 33.8688 17.2643 33.8688C19.4989 33.8688 21.3285 32.052 21.3285 29.8022C21.3285 27.5523 19.5129 25.7357 17.2643 25.7357C15.0158 25.7357 13.2002 27.5664 13.2002 29.8022ZM19.7084 29.8022C19.7084 31.1577 18.605 32.2617 17.2504 32.2617C15.8957 32.2617 14.7923 31.1577 14.7923 29.8022C14.7923 28.4467 15.8957 27.3428 17.2504 27.3428C18.605 27.3428 19.7084 28.4467 19.7084 29.8022Z" fill="#1C1C1C"/>
<path d="M40.4895 23.0619V21.4621V7.85974C40.4895 7.30746 40.0418 6.85974 39.4895 6.85974H25.3096C24.7573 6.85974 24.3096 7.30746 24.3096 7.85974V20.4621C24.3096 21.0144 23.8619 21.4621 23.3096 21.4621H10.6714C10.1191 21.4621 9.67139 21.9099 9.67139 22.4621V36.6779C9.67139 37.2302 10.1191 37.6779 10.6714 37.6779H24.3096H25.8377H39.4895C40.0418 37.6779 40.4895 37.2302 40.4895 36.6779V23.0619ZM38.9207 35.1056C38.9207 35.6578 38.473 36.1056 37.9207 36.1056H26.8786C26.3263 36.1056 25.8786 35.6578 25.8786 35.1056V24.0619C25.8786 23.5096 26.3263 23.0619 26.8786 23.0619H37.9207C38.473 23.0619 38.9207 23.5096 38.9207 24.0619V35.1056ZM25.8786 9.43217C25.8786 8.87988 26.3263 8.43217 26.8786 8.43217H37.9207C38.473 8.43217 38.9207 8.87988 38.9207 9.43217V20.4758C38.9207 21.0281 38.473 21.4758 37.9207 21.4758H26.8786C26.3263 21.4758 25.8786 21.0281 25.8786 20.4758V9.43217ZM12.2266 36.1056C11.6743 36.1056 11.2266 35.6578 11.2266 35.1056V24.0345C11.2266 23.4822 11.6743 23.0345 12.2266 23.0345H23.2687C23.821 23.0345 24.2687 23.4822 24.2687 24.0345V35.1056C24.2687 35.6578 23.821 36.1056 23.2687 36.1056H12.2266Z" fill="#1C1C1C"/>
<path d="M28.6094 29.8022C28.6094 32.0381 30.4261 33.8688 32.6759 33.8688C34.9118 33.8688 36.7424 32.052 36.7424 29.8022C36.7424 27.5523 34.9258 25.7357 32.6759 25.7357C30.44 25.7357 28.6094 27.5664 28.6094 29.8022ZM35.1354 29.8022C35.1354 31.1577 34.0314 32.2617 32.6759 32.2617C31.3204 32.2617 30.2164 31.1577 30.2164 29.8022C30.2164 28.4467 31.3204 27.3428 32.6759 27.3428C34.0314 27.3428 35.1354 28.4467 35.1354 29.8022Z" fill="#1C1C1C"/>
<path d="M36.7424 15.3561C36.7424 13.1063 34.9258 11.2896 32.6759 11.2896C30.4261 11.2896 28.6094 13.1063 28.6094 15.3561C28.6094 17.5919 30.4261 19.4226 32.6759 19.4226C34.9258 19.4086 36.7424 17.5919 36.7424 15.3561ZM30.2164 15.3561C30.2164 14.0006 31.3204 12.8966 32.6759 12.8966C34.0314 12.8966 35.1354 14.0006 35.1354 15.3561C35.1354 16.7116 34.0314 17.8155 32.6759 17.8155C31.3204 17.8155 30.2164 16.7116 30.2164 15.3561Z" fill="#1C1C1C"/>
<path d="M10.6316 3.20604C8.63885 3.38672 6.94754 2.93648 5.31534 1.78303C4.60733 1.28606 4.10047 0.769223 3.51106 1.10951C2.92167 1.4498 3.11581 2.14721 3.19397 3.01176C3.37506 4.99915 2.92099 6.69192 1.76818 8.32726C1.26776 9.03707 0.793466 9.61136 1.09367 10.1314C1.39387 10.6513 2.12845 10.5278 2.99329 10.4493C4.986 10.2686 6.6773 10.7187 8.30962 11.8722C9.0192 12.3723 9.52607 12.889 10.1155 12.5488C10.7049 12.2084 10.5108 11.5111 10.4326 10.6465C10.2515 8.65919 10.7056 6.96631 11.8584 5.33096C12.3589 4.62127 12.8332 4.04686 12.5329 3.52695C12.231 3.0039 11.4964 3.1275 10.6316 3.20604Z" stroke="#1C1C1C" stroke-width="1.5"/>
</svg>
