<svg width="45" height="45" viewBox="0 0 45 45" fill="none" xmlns="http://www.w3.org/2000/svg">
<path d="M27.5367 19.0691C32.2589 19.0558 37.4887 18.0615 40.9068 20.485C44.3073 22.8922 45.9307 28.7157 44.4513 33.9694C42.9719 39.2231 38.3721 43.8907 33.6085 44.8137C28.8278 45.7545 23.8661 42.9686 19.0248 40.1262C14.1832 37.2495 9.47945 34.3328 8.72615 30.4763C7.97285 26.6199 11.1699 21.8238 14.8846 19.9178C18.5991 18.0118 22.8143 19.0481 27.5367 19.0691Z" fill="#8C52FF"/>
<path d="M4.77565 14.775C9.38932 12.623 12.5387 9.45713 14.6647 4.80611C15.5909 2.79633 16.0497 1 17.7788 1C19.5077 1 19.9665 2.79633 20.8927 4.81502C23.0188 9.45713 26.4568 12.3408 31.0705 14.4929C33.0729 15.4267 34.8461 16.0937 34.8461 17.6321C34.8461 19.1705 33.0729 19.8375 31.0705 20.7712C26.4568 22.9234 23.0188 26.3802 20.8927 31.0311C19.9665 33.0498 19.5077 34.8461 17.7788 34.8461C16.0497 34.8461 15.5909 33.0498 14.6647 31.0311C12.5387 26.389 9.38932 23.2143 4.77565 21.0622C2.7732 20.1285 1 19.4615 1 17.9231C1 16.3757 2.7732 15.7087 4.77565 14.775Z" stroke="#1C1C1C" stroke-width="1.5"/>
<path d="M16.2307 12C14.9615 14.5385 13.2692 16.2308 10.3076 17.9231" stroke="#1C1C1C" stroke-width="1.5" stroke-linecap="round"/>
</svg>
