<svg width="39" height="40" viewBox="0 0 39 40" fill="none" xmlns="http://www.w3.org/2000/svg">
<path d="M38.982 16.6199C38.7575 20.7408 34.6642 24.5044 32.7677 28.7554C30.8714 33.0062 31.1228 37.726 29.2309 39.3434C27.3236 40.9271 23.2822 39.384 20.0167 37.4871C16.7757 35.5994 14.3199 33.3331 11.6365 30.0285C8.95306 26.7238 6.03574 22.3223 6.75746 18.6682C7.48839 14.9896 11.8277 11.9909 16.6337 9.61571C21.4489 7.21583 26.74 5.41497 31.1709 6.73963C35.6019 8.06429 39.2218 12.5329 38.982 16.6199Z" fill="#8C52FF"/>
<path d="M29 7.76923C29 11.5075 22.7314 14.5385 15 14.5385C7.26861 14.5385 1 11.5075 1 7.76923M29 7.76923C29 4.03097 22.7314 1 15 1C7.26861 1 1 4.03097 1 7.76923M29 7.76923V26.2308C29 29.969 22.7314 33 15 33C7.26861 33 1 29.969 1 26.2308V7.76923M29 7.76923V13.9231M1 7.76923V13.9231M29 13.9231V20.0769C29 23.8152 22.7314 26.8462 15 26.8462C7.26861 26.8462 1 23.8152 1 20.0769V13.9231M29 13.9231C29 17.6613 22.7314 20.6923 15 20.6923C7.26861 20.6923 1 17.6613 1 13.9231" stroke="black" stroke-width="1.5" stroke-linecap="round" stroke-linejoin="round"/>
</svg>
