<svg width="43" height="37" viewBox="0 0 43 37" fill="none" xmlns="http://www.w3.org/2000/svg">
<path d="M25.5367 11.0691C30.2589 11.0558 35.4887 10.0615 38.9068 12.485C42.3073 14.8922 43.9307 20.7157 42.4513 25.9694C40.9719 31.2231 36.3721 35.8907 31.6085 36.8137C26.8278 37.7545 21.8661 34.9686 17.0248 32.1262C12.1832 29.2495 7.47945 26.3328 6.72615 22.4763C5.97285 18.6199 9.16995 13.8238 12.8846 11.9178C16.5991 10.0118 20.8143 11.0481 25.5367 11.0691Z" fill="#8C52FF"/>
<path d="M9.16667 1V3.33333M3.33333 9.16667H1M29 9.16667H26.6667M3.33333 15H1M29 15H26.6667M3.33333 20.8333H1M29 20.8333H26.6667M9.16667 26.6667V29M15 1V3.33333M15 26.6667V29M20.8333 1V3.33333M20.8333 26.6667V29M6.83333 26.6667H23.1667C24.0949 26.6667 24.9852 26.2979 25.6415 25.6415C26.2979 24.9852 26.6667 24.0949 26.6667 23.1667V6.83333C26.6667 5.90508 26.2979 5.01484 25.6415 4.35846C24.9852 3.70208 24.0949 3.33333 23.1667 3.33333H6.83333C5.90508 3.33333 5.01484 3.70208 4.35846 4.35846C3.70208 5.01484 3.33333 5.90508 3.33333 6.83333V23.1667C3.33333 24.0949 3.70208 24.9852 4.35846 25.6415C5.01484 26.2979 5.90508 26.6667 6.83333 26.6667ZM8 8H22V22H8V8Z" stroke="black" stroke-width="1.5" stroke-linecap="round" stroke-linejoin="round"/>
</svg>
