<svg width="43" height="40" viewBox="0 0 43 40" fill="none" xmlns="http://www.w3.org/2000/svg">
<path d="M42.982 16.6199C42.7575 20.7408 38.6642 24.5044 36.7677 28.7554C34.8714 33.0062 35.1228 37.726 33.2309 39.3434C31.3236 40.9271 27.2822 39.384 24.0167 37.4871C20.7757 35.5994 18.3199 33.3331 15.6365 30.0285C12.9531 26.7238 10.0357 22.3223 10.7575 18.6682C11.4884 14.9896 15.8277 11.9909 20.6337 9.61571C25.4489 7.21583 30.74 5.41497 35.1709 6.73963C39.6019 8.06429 43.2218 12.5329 42.982 16.6199Z" fill="#8C52FF"/>
<path d="M3.9375 0.75V18.5625C3.9375 19.5073 4.31283 20.4135 4.98093 21.0816C5.64903 21.7497 6.55517 22.125 7.5 22.125H11.0625M3.9375 0.75H1.5625M3.9375 0.75H30.0625M11.0625 22.125H22.9375M11.0625 22.125L9.47917 26.875M30.0625 0.75H32.4375M30.0625 0.75V18.5625C30.0625 19.5073 29.6872 20.4135 29.0191 21.0816C28.351 21.7497 27.4448 22.125 26.5 22.125H22.9375M22.9375 22.125L24.5208 26.875M9.47917 26.875H24.5208M9.47917 26.875L8.6875 29.25M24.5208 26.875L25.3125 29.25M12.25 13.8125V16.1875M17 10.25V16.1875M21.75 6.6875V16.1875" stroke="black" stroke-width="1.5" stroke-linecap="round" stroke-linejoin="round"/>
</svg>
